<?xml version="1.0" encoding="UTF-8" standalone="no"?>
<!-- Created with Inkscape (http://www.inkscape.org/) -->

<svg
   width="210mm"
   height="297mm"
   viewBox="0 0 210 297"
   version="1.1"
   id="svg1"
   xml:space="preserve"
   inkscape:version="1.4.2 (f4327f4, 2025-05-13)"
   sodipodi:docname="default-item.svg"
   xmlns:inkscape="http://www.inkscape.org/namespaces/inkscape"
   xmlns:sodipodi="http://sodipodi.sourceforge.net/DTD/sodipodi-0.dtd"
   xmlns="http://www.w3.org/2000/svg"
   xmlns:svg="http://www.w3.org/2000/svg"><sodipodi:namedview
     id="namedview1"
     pagecolor="#ffffff"
     bordercolor="#000000"
     borderopacity="0.25"
     inkscape:showpageshadow="2"
     inkscape:pageopacity="0.0"
     inkscape:pagecheckerboard="0"
     inkscape:deskcolor="#d1d1d1"
     inkscape:document-units="mm"
     inkscape:zoom="0.71891835"
     inkscape:cx="397.12437"
     inkscape:cy="672.53813"
     inkscape:window-width="1920"
     inkscape:window-height="1009"
     inkscape:window-x="-8"
     inkscape:window-y="-8"
     inkscape:window-maximized="1"
     inkscape:current-layer="layer1" /><defs
     id="defs1" /><g
     inkscape:label="Calque 1"
     inkscape:groupmode="layer"
     id="layer1"><rect
       style="fill:#000000;fill-opacity:1;stroke:none;stroke-width:0.966692"
       id="rect1"
       width="238.0591"
       height="297.73605"
       x="-14.029554"
       y="-0.36803406"
       ry="0" /></g><path
     style="fill:#78228a;fill-opacity:1;stroke-width:1.76253"
     d="m 87.159821,196.41576 c -4.980003,-2.84769 -5.664516,-8.61502 -1.512231,-12.74108 2.219833,-2.20582 4.422604,-2.83153 7.269455,-2.06496 3.745552,1.00858 6.097874,4.11658 6.082804,8.03688 -0.02274,5.94152 -6.655748,9.73368 -11.840028,6.76916 z m 61.978759,0.28039 c -3.18056,-1.68052 -4.5378,-3.83084 -4.5378,-7.1894 0,-6.94796 7.89172,-10.6229 13.2072,-6.1502 4.13052,3.47558 3.48578,10.3859 -1.21754,13.04971 -2.20247,1.2474 -5.40396,1.37196 -7.45186,0.28989 z M 80.636901,177.53862 c -0.136419,-0.45027 -1.628645,-8.05852 -3.316071,-16.90723 -8.846565,-46.39083 -9.470905,-49.5312 -9.94083,-50.00112 -0.212261,-0.21224 -4.566761,-1.4445 -9.676679,-2.73832 -5.109919,-1.2938 -9.658544,-2.68522 -10.108059,-3.09203 -1.073907,-0.97186 -1.053885,-3.50077 0.0356,-4.48666 0.469044,-0.424483 1.465824,-0.766272 2.215092,-0.75954 1.251165,0.01058 22.891386,5.27285 23.278454,5.65993 0.223471,0.22346 2.564354,12.00005 2.573572,12.94712 0.0035,0.4035 0.168674,0.98786 0.3662,1.29862 0.255954,0.40277 11.467178,1.23579 39.04845,2.90138 48.18634,2.90993 46.24986,2.7617 47.09275,3.6046 0.58368,0.58368 0.69017,3.27037 0.69017,17.41162 0,18.06389 -0.0141,18.16982 -2.48157,18.19915 -0.55876,0.007 -17.56663,1.03139 -37.79524,2.27722 -25.477073,1.56907 -36.883361,2.43345 -37.11783,2.81285 -0.186194,0.30125 -0.133424,1.58486 0.117208,2.85247 l 0.455701,2.30475 h 37.035041 c 40.41781,0 39.31629,-0.0724 39.99479,2.63095 0.22481,0.89568 0.056,1.61447 -0.57857,2.46454 l -0.89592,1.20005 -40.37206,0.11915 c -38.152047,0.11262 -40.385715,0.0742 -40.620096,-0.6995 z m 17.522681,-18.60256 c 3.252638,-0.1699 6.112978,-0.43492 6.356288,-0.58914 0.26694,-0.1692 -0.0259,-2.75923 -0.73866,-6.53087 l -1.18103,-6.25048 -10.477418,0.28288 c -5.762583,0.15563 -10.566563,0.37202 -10.675522,0.48098 -0.108924,0.10892 0.367875,3.19035 1.059614,6.84752 l 1.257739,6.64944 4.242526,-0.29078 c 2.333393,-0.15987 6.903802,-0.42974 10.156463,-0.59955 z m 25.330548,-1.57395 c 5.38618,-0.27746 10.44287,-0.60317 11.23711,-0.72382 l 1.44406,-0.21934 -0.84973,-4.53906 c -0.46735,-2.49648 -0.97121,-5.04072 -1.11965,-5.65385 l -0.26991,-1.1148 -13.27643,0.2322 c -7.30203,0.12778 -13.40636,0.36213 -13.56518,0.52093 -0.27871,0.27873 1.59249,11.33717 2.05124,12.12243 0.12426,0.21263 1.20002,0.27258 2.39066,0.13325 1.19064,-0.13942 6.57165,-0.48041 11.95783,-0.75789 z m 28.44647,-1.77918 4.66334,-0.3144 0.13184,-5.24627 0.13184,-5.24627 h -9.34198 c -5.13808,0 -9.34166,0.15739 -9.34125,0.34976 0.001,0.67616 1.94636,10.59726 2.13844,10.90808 0.10698,0.17291 1.71538,0.21304 3.57437,0.089 1.859,-0.12408 5.47851,-0.36699 8.04336,-0.53991 z m -50.25216,-14.6542 c -0.12144,-0.3206 -0.70867,-3.2805 -1.30487,-6.57754 -0.596207,-3.29704 -1.306188,-6.07716 -1.577776,-6.17806 -1.196069,-0.44439 -21.245702,-1.32264 -21.245702,-0.93065 0,0.54938 2.331683,12.91638 2.58041,13.68625 0.14347,0.4441 2.757721,0.58292 10.978571,0.58292 8.439126,0 10.742117,-0.12708 10.569367,-0.58292 z m 31.36557,0.0435 c 0,-0.2967 -0.44361,-2.91983 -0.98582,-5.82919 l -0.98582,-5.28973 -1.46244,-0.007 c -0.80434,-0.004 -6.28901,-0.3144 -12.18815,-0.68948 -5.89915,-0.3751 -11.47753,-0.68649 -12.3964,-0.692 l -1.6707,-0.0106 1.11742,5.94576 c 0.61459,3.27018 1.20243,6.2081 1.30632,6.5287 0.26256,0.81033 27.26559,0.85338 27.26559,0.0435 z m 23.7831,-4.59023 v -5.12968 h -1.45826 c -0.80206,0 -5.53536,-0.23317 -10.51845,-0.51815 -4.9831,-0.285 -9.16234,-0.41601 -9.2872,-0.29115 -0.12478,0.12479 0.23227,2.66639 0.79362,5.64782 l 1.02061,5.42085 h 9.72483 9.72485 z"
     id="path1"
     sodipodi:nodetypes="ssscsssssscssssscscsssscssscssscscccscccsscccsscssccsscssccccsscsscsssssssssccsccssssccsssscccc" /></svg>
